HIERARCHY
ROOT joint_0
{
	OFFSET 0.000000 0.000000 0.000000
	CHANNELS 6 Xposition Yposition Zposition Zrotation Yrotation Xrotation 
	JOINT joint_1
	{
		OFFSET 3.886261 -0.864090 119.041016
		CHANNELS 3 Zrotation Yrotation Xrotation
		JOINT joint_2
		{
			OFFSET -8.814819 -1.400200 108.366943
			CHANNELS 3 Zrotation Yrotation Xrotation
			JOINT joint_3
			{
				OFFSET -10.127777 -1.846550 108.123047
				CHANNELS 3 Zrotation Yrotation Xrotation
				JOINT joint_4
				{
					OFFSET -0.104309 -2.852760 150.227051
					CHANNELS 3 Zrotation Yrotation Xrotation
					JOINT joint_5
					{
						OFFSET 20.206146 2.292160 92.163940
						CHANNELS 3 Zrotation Yrotation Xrotation
						End Site
						{
							OFFSET 0.000000 0.000000 0.000000
						}
					}
				}
				JOINT joint_6
				{
					OFFSET 0.345886 -34.260384 83.589966
					CHANNELS 3 Zrotation Yrotation Xrotation
					JOINT joint_7
					{
						OFFSET -3.824402 -146.174217 -19.015991
						CHANNELS 3 Zrotation Yrotation Xrotation
						JOINT joint_8
						{
							OFFSET 134.098145 -24.802032 -261.230957
							CHANNELS 3 Zrotation Yrotation Xrotation
							JOINT joint_9
							{
								OFFSET 123.899048 209.340523 59.187012
								CHANNELS 3 Zrotation Yrotation Xrotation
								End Site
								{
									OFFSET 0.000000 0.000000 0.000000
								}
							}
						}
					}
				}
				JOINT joint_10
				{
					OFFSET -0.423798 31.098438 84.831055
					CHANNELS 3 Zrotation Yrotation Xrotation
					JOINT joint_11
					{
						OFFSET 3.093201 146.891491 -12.504028
						CHANNELS 3 Zrotation Yrotation Xrotation
						JOINT joint_12
						{
							OFFSET 195.631927 -20.967743 -219.380981
							CHANNELS 3 Zrotation Yrotation Xrotation
							JOINT joint_13
							{
								OFFSET -8.651001 -247.511261 -36.616089
								CHANNELS 3 Zrotation Yrotation Xrotation
								End Site
								{
									OFFSET 0.000000 0.000000 0.000000
								}
							}
						}
					}
				}
			}
		}
	}
	JOINT joint_14
	{
		OFFSET 6.948090 -87.642914 -106.942017
		CHANNELS 3 Zrotation Yrotation Xrotation
		JOINT joint_15
		{
			OFFSET -34.394226 4.543823 -458.972961
			CHANNELS 3 Zrotation Yrotation Xrotation
			JOINT joint_16
			{
				OFFSET -17.051544 6.964645 -485.636009
				CHANNELS 3 Zrotation Yrotation Xrotation
				JOINT joint_17
				{
					OFFSET 190.520630 40.462875 -83.888000
					CHANNELS 3 Zrotation Yrotation Xrotation
					End Site
					{
						OFFSET 0.000000 0.000000 0.000000
					}
				}
			}
		}
	}
	JOINT joint_18
	{
		OFFSET 3.929901 87.535423 -107.188965
		CHANNELS 3 Zrotation Yrotation Xrotation
		JOINT joint_19
		{
			OFFSET -34.463440 -10.383845 -458.873047
			CHANNELS 3 Zrotation Yrotation Xrotation
			JOINT joint_20
			{
				OFFSET 14.641205 -11.071349 -485.637978
				CHANNELS 3 Zrotation Yrotation Xrotation
				JOINT joint_21
				{
					OFFSET 194.569275 -4.161928 -84.249998
					CHANNELS 3 Zrotation Yrotation Xrotation
					End Site
					{
						OFFSET 0.000000 0.000000 0.000000
					}
				}
			}
		}
	}
}
MOTION
Frames: 10
Frame Time: 0.016667
1131.664062 -90.052139 1154.598999 -1.022099 -6.269222 0.337562 0.048155 -9.245464 -1.655738 0.132092 1.039326 0.291858 0.007412 -2.124434 -0.224101 -0.824706 11.205752 1.933064 0.000000 0.000000 0.000000 -1.203486 3.586408 2.657489 15.405717 0.831875 -12.363715 11.202287 8.943117 -18.711397 0.000000 0.000000 0.000000 7.350105 4.193322 0.054026 5.143223 4.141617 5.585829 -4.309448 1.000206 -5.108046 0.000000 0.000000 0.000000 0.817505 -0.537341 -1.080607 0.867687 13.077437 0.221550 0.579616 -4.681083 1.243838 0.000000 0.000000 0.000000 -5.516031 -1.348629 3.113556 -5.592079 15.921400 -2.256162 -6.061070 -7.743597 -2.735753 0.000000 0.000000 0.000000 
1131.394409 -90.149628 1154.521973 -0.956830 -6.287033 0.318872 0.036525 -9.197387 -1.673770 0.124855 1.034016 0.296774 -0.000357 -2.111583 -0.227034 -0.821695 11.173818 1.919942 0.000000 0.000000 0.000000 -1.187989 3.570385 2.662640 15.402947 0.822388 -12.347846 11.180137 8.959785 -18.728865 0.000000 0.000000 0.000000 7.374634 4.171736 0.034945 5.138365 4.116806 5.586402 -4.306813 0.999977 -5.098970 0.000000 0.000000 0.000000 0.791030 -0.579455 -1.064107 0.841843 13.178941 0.233185 0.553376 -4.715049 1.239619 0.000000 0.000000 0.000000 -5.537326 -1.391529 3.143833 -5.612827 16.001374 -2.274971 -6.086454 -7.774903 -2.746623 0.000000 0.000000 0.000000 
1131.117310 -90.223839 1154.449951 -0.899040 -6.312192 0.304895 0.028826 -9.146020 -1.684547 0.120012 1.032395 0.299123 -0.005511 -2.100137 -0.228987 -0.819010 11.149569 1.907525 0.000000 0.000000 0.000000 -1.164547 3.551351 2.681815 15.393569 0.813009 -12.342052 11.161791 8.971051 -18.738043 0.000000 0.000000 0.000000 7.400535 4.150834 0.013321 5.135590 4.092612 5.589496 -4.297339 0.998355 -5.082194 0.000000 0.000000 0.000000 0.767739 -0.607458 -1.051522 0.819180 13.266814 0.240696 0.530292 -4.743391 1.235585 0.000000 0.000000 0.000000 -5.555180 -1.428808 3.164389 -5.630943 16.085923 -2.288427 -6.109878 -7.807287 -2.756669 0.000000 0.000000 0.000000 
1130.824463 -90.281548 1154.380981 -0.846514 -6.341427 0.293897 0.025380 -9.089995 -1.688943 0.118121 1.031698 0.299414 -0.007345 -2.089028 -0.228993 -0.816032 11.130530 1.893009 0.000000 0.000000 0.000000 -1.137696 3.530646 2.711252 15.378942 0.804069 -12.343329 11.145900 8.977799 -18.740794 0.000000 0.000000 0.000000 7.425370 4.130928 -0.011042 5.134609 4.069456 5.594431 -4.282057 0.995528 -5.059363 0.000000 0.000000 0.000000 0.746607 -0.627354 -1.041473 0.798651 13.345123 0.245408 0.509296 -4.767897 1.231650 0.000000 0.000000 0.000000 -5.570598 -1.465138 3.178096 -5.647397 16.176197 -2.297348 -6.132398 -7.840787 -2.766333 0.000000 0.000000 0.000000 
1130.519409 -90.331245 1154.323975 -0.795240 -6.366906 0.282421 0.023023 -9.037093 -1.687585 0.116298 1.031421 0.298907 -0.009032 -2.079107 -0.228735 -0.812969 11.114380 1.878028 0.000000 0.000000 0.000000 -1.108420 3.507459 2.739034 15.368244 0.792634 -12.343341 11.131615 8.986372 -18.745987 0.000000 0.000000 0.000000 7.448832 4.111454 -0.031918 5.135887 4.047193 5.598293 -4.267207 0.993082 -5.040815 0.000000 0.000000 0.000000 0.726111 -0.643884 -1.031224 0.778671 13.407078 0.249582 0.489134 -4.784315 1.226374 0.000000 0.000000 0.000000 -5.585786 -1.504062 3.193030 -5.663571 16.261918 -2.307211 -6.154481 -7.869343 -2.775733 0.000000 0.000000 0.000000 
1130.204590 -90.378891 1154.286987 -0.742252 -6.383844 0.267665 0.020161 -8.992867 -1.679669 0.112758 1.030892 0.296511 -0.012039 -2.071003 -0.226280 -0.809170 11.103427 1.859693 0.000000 0.000000 0.000000 -1.079387 3.480143 2.755380 15.370365 0.775142 -12.336994 11.120578 9.001768 -18.760699 0.000000 0.000000 0.000000 7.468174 4.091853 -0.047022 5.142580 4.025969 5.600875 -4.258504 0.992578 -5.036637 0.000000 0.000000 0.000000 0.705153 -0.658695 -1.019024 0.757999 13.446272 0.255894 0.468857 -4.788413 1.218453 0.000000 0.000000 0.000000 -5.602149 -1.548410 3.215232 -5.680337 16.338141 -2.322032 -6.176525 -7.890103 -2.784996 0.000000 0.000000 0.000000 
1129.876709 -90.421371 1154.266968 -0.688308 -6.395287 0.250967 0.017791 -8.954294 -1.665452 0.108607 1.030971 0.293186 -0.015591 -2.065033 -0.223515 -0.805377 11.098478 1.840894 0.000000 0.000000 0.000000 -1.048921 3.449495 2.766655 15.380587 0.753487 -12.327837 11.112334 9.021516 -18.781349 0.000000 0.000000 0.000000 7.483200 4.072399 -0.056873 5.154648 4.006122 5.602929 -4.252934 0.993316 -5.042695 0.000000 0.000000 0.000000 0.684143 -0.670407 -1.005887 0.737084 13.466097 0.263247 0.448779 -4.782438 1.208494 0.000000 0.000000 0.000000 -5.619308 -1.597034 3.241872 -5.697560 16.408860 -2.340385 -6.198752 -7.904705 -2.794228 0.000000 0.000000 0.000000 
1129.542969 -90.458893 1154.260010 -0.635328 -6.398804 0.233968 0.015442 -8.921805 -1.649242 0.104271 1.030770 0.290299 -0.019333 -2.059522 -0.220506 -0.801857 11.093047 1.823784 0.000000 0.000000 0.000000 -1.018837 3.419403 2.775746 15.390859 0.732280 -12.316225 11.102258 9.042002 -18.803133 0.000000 0.000000 0.000000 7.496742 4.053966 -0.065010 5.163920 3.986999 5.602215 -4.247194 0.993861 -5.048307 0.000000 0.000000 0.000000 0.662927 -0.683499 -0.991467 0.716110 13.471073 0.268019 0.428794 -4.769769 1.197169 0.000000 0.000000 0.000000 -5.636470 -1.647852 3.268722 -5.714828 16.466220 -2.356347 -6.220089 -7.910435 -2.803005 0.000000 0.000000 0.000000 
1129.203247 -90.489243 1154.265015 -0.582657 -6.391691 0.216843 0.012960 -8.896121 -1.631342 0.099779 1.029731 0.286107 -0.022961 -2.055048 -0.216695 -0.799330 11.085610 1.811640 0.000000 0.000000 0.000000 -0.988692 3.392387 2.785518 15.393570 0.715437 -12.304490 11.086834 9.060632 -18.821962 0.000000 0.000000 0.000000 7.507640 4.037009 -0.073945 5.165893 3.968508 5.596636 -4.237982 0.993165 -5.046786 0.000000 0.000000 0.000000 0.640847 -0.701627 -0.974669 0.694690 13.462917 0.267575 0.408397 -4.751877 1.184573 0.000000 0.000000 0.000000 -5.653818 -1.701266 3.294313 -5.732506 16.505170 -2.366840 -6.240393 -7.905522 -2.811282 0.000000 0.000000 0.000000 
1128.856689 -90.514328 1154.284058 -0.529856 -6.375077 0.199057 0.010262 -8.877422 -1.611004 0.094825 1.028150 0.281115 -0.026863 -2.050910 -0.212262 -0.797751 11.077311 1.804098 0.000000 0.000000 0.000000 -0.957259 3.366451 2.794695 15.392076 0.700679 -12.291900 11.067268 9.079348 -18.840347 0.000000 0.000000 0.000000 7.516591 4.020853 -0.081661 5.162487 3.950301 5.586272 -4.226485 0.991712 -5.041518 0.000000 0.000000 0.000000 0.618188 -0.722432 -0.955688 0.672963 13.439148 0.263481 0.387863 -4.726834 1.170412 0.000000 0.000000 0.000000 -5.671550 -1.757777 3.320298 -5.750666 16.528844 -2.374060 -6.260031 -7.891164 -2.819211 0.000000 0.000000 0.000000 
